# xmcd
#
# Track frame offsets:
# 150
# 10514
# 23611
# 54123
# 84437
# 92861
# 96901
# 118530
# 131952
# 148346
# 163837
# 169262
# 187933
# 208355
# 224573
# 244329
# 262361
# 273781
# 300759
# 307291
# 322988
#
# Disc length: 4443 seconds
#
# Revision: 0
# Processed by: cddbd v1.4PL0 Copyright (c) Steve Scherf et al.
# Submitted via: Audion 2.6.0 (http://www.panic.com/audion/)
#
DISCID=32115915
DTITLE=xn -  bhbn
DYEAR=1900
DGENRE=
TTITLE0=xvbn
TTITLE1=xvbn
TTITLE2=xvbn
TTITLE3=bvxn
TTITLE4=xbvn
TTITLE5=xvbn
TTITLE6=xvbn
TTITLE7=xvbn
TTITLE8=xvbn
TTITLE9=xvbn
TTITLE10=xxvbn
TTITLE11=xbvn
TTITLE12=xbv
TTITLE13=xcvn
TTITLE14=xbn
TTITLE15=xbn
TTITLE16=xbnxfg
TTITLE17=gxhgf
TTITLE18=vbgxzhbgfh
TTITLE19=fghbzdfgb
TTITLE20=nzfghzfj
EXTD=
EXTT0=
EXTT1=
EXTT2=
EXTT3=
EXTT4=
EXTT5=
EXTT6=
EXTT7=
EXTT8=
EXTT9=
EXTT10=
EXTT11=
EXTT12=
EXTT13=
EXTT14=
EXTT15=
EXTT16=
EXTT17=
EXTT18=
EXTT19=
EXTT20=
PLAYORDER=
